<svg width="32" height="20" viewBox="0 0 32 20" fill="none" xmlns="http://www.w3.org/2000/svg">
<path fill-rule="evenodd" clip-rule="evenodd" d="M20.8857 0.26263C20.0182 0.793724 19.6931 1.87111 20.1098 2.83436C20.2119 3.07037 21.3173 4.28283 22.5663 5.52876C23.8152 6.77469 24.8371 7.82474 24.8371 7.86221C24.8371 7.89968 19.5938 7.93035 13.1855 7.93035C1.67093 7.93035 1.52845 7.93355 1.06956 8.20423C-0.356519 9.0456 -0.356519 10.9486 1.06956 11.79C1.52606 12.0592 1.73201 12.0651 13.1871 12.1306L24.8402 12.1972L22.5724 14.464C21.325 15.7107 20.219 16.8928 20.1143 17.0908C19.6775 17.918 20.0191 19.1442 20.8401 19.6949C21.3702 20.0506 22.3913 20.1048 22.9516 19.8072C23.4993 19.5161 31.7068 11.1829 31.8668 10.7552C32.0664 10.2217 32.0409 9.6515 31.7953 9.15707C31.5442 8.65198 23.4726 0.46584 22.9516 0.187826C22.4287 -0.0909879 21.4026 -0.0539188 20.8857 0.26263Z" fill="white"/>
</svg>
