<svg width="16" height="12" viewBox="0 0 16 12" fill="none" xmlns="http://www.w3.org/2000/svg">
<path d="M15.3521 2.79799C15.3521 2.56083 15.2573 2.32366 15.0865 2.1529L13.7963 0.862723C13.6256 0.691964 13.3884 0.597098 13.1512 0.597098C12.9141 0.597098 12.6769 0.691964 12.5061 0.862723L6.28292 7.09542L3.49386 4.29687C3.3231 4.12612 3.08594 4.03125 2.84877 4.03125C2.61161 4.03125 2.37444 4.12612 2.20368 4.29687L0.913505 5.58705C0.742746 5.75781 0.64788 5.99498 0.64788 6.23214C0.64788 6.46931 0.742746 6.70647 0.913505 6.87723L4.34766 10.3114L5.63783 11.6016C5.80859 11.7723 6.04576 11.8672 6.28292 11.8672C6.52009 11.8672 6.75725 11.7723 6.92801 11.6016L8.21819 10.3114L15.0865 3.44308C15.2573 3.27232 15.3521 3.03516 15.3521 2.79799Z" fill="#18A0FB"/>
</svg>
