<svg width="31" height="40" viewBox="0 0 31 40" fill="none" xmlns="http://www.w3.org/2000/svg">
<path d="M15.5228 11.25C18.608 11.25 21.1111 8.73047 21.1111 5.625C21.1111 2.51953 18.6119 0 15.5228 0C12.4337 0 9.86463 2.51953 9.86463 5.625C9.86463 8.73047 12.4415 11.25 15.5228 11.25ZM30.3551 8.65625C29.2771 7.31719 27.3235 7.10937 25.9893 8.19484L22.0115 11.4375C18.3511 14.4211 12.6898 14.4211 9.02639 11.4375L5.05791 8.19531C3.7268 7.10938 1.76934 7.31797 0.692034 8.65625C-0.386822 10 -0.181917 11.9688 1.15074 13.0547L5.12388 16.2945C6.03431 17.0364 7.03555 17.6352 8.07172 18.1633L8.00186 37.5C8.00186 38.8766 9.11797 40 10.4856 40H11.6576C13.0251 40 14.1412 38.8766 14.1412 37.5V28.75H16.6249V37.5C16.6249 38.8766 17.7411 40 19.1086 40H20.2806C21.6482 40 22.7643 38.8766 22.7643 37.5V18.1641C23.8005 17.6362 24.8017 17.0375 25.7114 16.2961L29.6853 13.0562C31.2244 11.9688 31.3641 10 30.3551 8.65625Z" fill="white"/>
</svg>
