<svg width="16" height="16" viewBox="0 0 16 16" fill="none" xmlns="http://www.w3.org/2000/svg">
<path d="M11.7419 10.1354C12.7102 8.84709 13.1439 7.24984 12.9562 5.66318C12.7686 4.07652 11.9733 2.61746 10.7297 1.57791C9.48604 0.53835 7.88567 -0.00503513 6.24876 0.0564613C4.61185 0.117958 3.05911 0.779801 1.90119 1.90958C0.743273 3.03936 0.0655718 4.55375 0.00366997 6.14979C-0.0582319 7.74583 0.500231 9.3058 1.56733 10.5176C2.63443 11.7294 4.13147 12.5037 5.75894 12.6856C7.38642 12.8674 9.02431 12.4434 10.3449 11.4984H10.3439C10.3739 11.5374 10.4059 11.5745 10.4419 11.6105L14.2919 15.3643C14.4794 15.5473 14.7338 15.6501 14.9991 15.6502C15.2643 15.6503 15.5188 15.5476 15.7064 15.3648C15.8941 15.182 15.9995 14.934 15.9996 14.6753C15.9997 14.4167 15.8944 14.1686 15.7069 13.9857L11.8569 10.2319C11.8212 10.1966 11.7827 10.164 11.7419 10.1344V10.1354ZM11.9999 6.38746C11.9999 7.09168 11.8577 7.789 11.5813 8.43961C11.3049 9.09022 10.8997 9.68138 10.389 10.1793C9.87829 10.6773 9.27198 11.0723 8.60468 11.3418C7.93739 11.6113 7.2222 11.75 6.49993 11.75C5.77765 11.75 5.06246 11.6113 4.39516 11.3418C3.72787 11.0723 3.12156 10.6773 2.61084 10.1793C2.10011 9.68138 1.69499 9.09022 1.41858 8.43961C1.14218 7.789 0.999922 7.09168 0.999922 6.38746C0.999922 4.96524 1.57939 3.60126 2.61084 2.5956C3.64229 1.58993 5.04123 1.02495 6.49993 1.02495C7.95862 1.02495 9.35756 1.58993 10.389 2.5956C11.4205 3.60126 11.9999 4.96524 11.9999 6.38746Z" fill="#08AF5A"/>
</svg>
