<svg width="22" height="23" viewBox="0 0 22 23" fill="none" xmlns="http://www.w3.org/2000/svg">
<path fill-rule="evenodd" clip-rule="evenodd" d="M8.36981 0.844842C5.43684 0.887762 3.74521 1.14829 2.57271 1.73759C1.95221 2.04948 1.53097 2.41233 1.1834 2.93437C0.579968 3.84072 0.246441 5.14852 0.104691 7.16411C0.0494471 7.94955 0.0281481 8.66422 0.0138057 10.2106L0 11.7005L0.481202 11.6858C3.91238 11.5811 5.51105 11.4065 6.70583 11.0063C8.4415 10.4249 9.6254 9.23105 10.1932 7.48977C10.5057 6.53121 10.6712 5.37982 10.774 3.44967C10.8082 2.8075 10.8712 1.19776 10.8712 0.965743V0.830242L9.79225 0.83503C9.19886 0.837649 8.55875 0.842072 8.36981 0.844842ZM11.1368 1.29373C11.2335 4.41487 11.363 5.81551 11.6656 7.01381C11.9812 8.26403 12.5846 9.27152 13.4476 9.98946C14.5704 10.9235 15.9098 11.343 18.3752 11.5326C19.1264 11.5904 21.365 11.6942 21.8623 11.6944L22 11.6944L21.9857 10.1968C21.9599 7.48836 21.8746 6.2686 21.6256 5.04924C21.3665 3.78032 20.8784 2.80428 20.2324 2.26365C19.2971 1.48087 17.9571 1.08388 15.7235 0.927783C14.9336 0.87256 14.2207 0.851584 12.6446 0.837177L11.1222 0.823242L11.1368 1.29373ZM0.0138486 13.4389C0.0386473 16.1178 0.121546 17.3303 0.362018 18.5329C0.620225 19.8241 1.08069 20.7762 1.72024 21.3414C2.55008 22.0748 3.81522 22.4945 5.73965 22.6749C6.67553 22.7626 7.46196 22.7919 9.3521 22.8093L10.8712 22.8232V22.6842C10.8712 22.488 10.8114 20.8932 10.7848 20.3793C10.6743 18.2437 10.5053 17.0713 10.1635 16.0684C9.72629 14.7858 8.94815 13.8088 7.84058 13.152C6.82089 12.5473 5.52283 12.2406 3.35639 12.0925C2.60597 12.0412 0.565346 11.9522 0.137692 11.9521L6.44121e-05 11.9521L0.0138486 13.4389ZM20.737 11.9862C17.8604 12.097 16.5384 12.2505 15.4076 12.605C14.3345 12.9415 13.4741 13.4999 12.8243 14.2817C11.869 15.4309 11.447 16.8383 11.2698 19.4668C11.2154 20.2735 11.1295 22.2296 11.129 22.6748L11.1288 22.8232L12.6479 22.8093C14.2146 22.7948 14.8977 22.7747 15.7128 22.719C17.6938 22.5837 18.9819 22.2504 19.8907 21.6382C20.4295 21.2752 20.7773 20.8669 21.0909 20.229C21.7566 18.8749 21.9916 16.9465 21.9927 12.827L21.993 11.9521L21.73 11.9551C21.5853 11.9568 21.1385 11.9708 20.737 11.9862Z" fill="#18A0FB"/>
</svg>
