<svg width="47" height="35" viewBox="0 0 47 35" fill="none" xmlns="http://www.w3.org/2000/svg">
<path d="M7.76195 22.6531C8.85234 26.9798 10.2388 28.8726 14.8636 30.8552C19.4907 32.8355 21.6879 35 23.5021 35C25.3139 35 27.3748 33.1072 31.9995 31.1223C36.6266 29.1397 35.3906 28.5364 36.4809 24.2097L23.5021 30.3947L7.76195 22.6531ZM45.8526 11.3654L26.2891 0.630356C24.7569 -0.210119 22.2472 -0.210119 20.715 0.630356L1.14914 11.3654C-0.383045 12.2059 -0.383045 13.5829 1.14914 14.4233L20.7126 25.1584C22.2448 25.9989 24.7546 25.9989 26.2868 25.1584L38.9343 18.2181L25.2199 15.0704C24.6574 15.2032 24.0807 15.2697 23.5021 15.2684C21.0299 15.2684 19.0277 14.1033 19.0277 12.6641C19.0277 11.2203 21.0322 10.0552 23.5021 10.0552C25.4196 10.0552 27.0505 10.7621 27.685 11.7453L42.2125 16.4175L45.8526 14.421C47.3825 13.5829 47.3825 12.2059 45.8526 11.3654ZM39.8743 31.7072C39.7215 32.5937 42.8893 34.0513 43.1901 31.4608C44.5507 19.7817 42.2125 16.4221 42.2125 16.4221L38.9343 18.2181C38.9343 18.2181 41.7143 20.811 39.8743 31.7072Z" fill="white"/>
</svg>
