<svg width="26" height="23" viewBox="0 0 26 23" fill="none" xmlns="http://www.w3.org/2000/svg">
<path fill-rule="evenodd" clip-rule="evenodd" d="M23.6911 1.00872C23.4516 1.10668 23.216 1.21819 23.1675 1.25647C23.1192 1.29475 22.9225 1.37502 22.7306 1.43478C22.1895 1.60314 20.4722 2.24719 20.3746 2.3183C20.3266 2.35324 20.0714 2.45093 19.8074 2.53533C19.5435 2.61973 19.2006 2.76186 19.0454 2.85119C18.8903 2.94043 18.5565 3.07526 18.3037 3.15069C18.0509 3.22611 17.6478 3.3656 17.4079 3.46083C17.1679 3.55597 16.4611 3.83768 15.8372 4.08675C14.3621 4.67579 13.2797 5.09146 12.5214 5.35989C12.1855 5.47888 11.7928 5.6321 11.6489 5.70048C11.3427 5.8457 10.6187 6.12609 8.98751 6.73124C8.33963 6.9716 7.59357 7.26044 7.32962 7.37327C6.51307 7.72214 5.32532 8.19307 4.23198 8.60161C0.506878 9.99338 0 10.2762 0 10.9633C0 11.5415 0.212821 11.671 2.26869 12.3437C2.58064 12.4458 3.20889 12.6512 3.66481 12.8002C4.51923 13.0794 5.99354 13.5314 6.56097 13.6882C6.86532 13.7722 6.92789 13.7496 7.69532 13.2796C8.14207 13.0061 8.69197 12.6553 8.91727 12.5002C9.14257 12.3451 9.49596 12.116 9.70259 11.9912C10.1139 11.7427 11.2392 11.0318 12.1288 10.4587C12.4407 10.2577 12.9708 9.92122 13.3068 9.71105C13.6427 9.50089 14.2317 9.12254 14.6156 8.8703C14.9995 8.61816 15.4073 8.36302 15.5217 8.30335C15.6362 8.24368 16.0041 8.01098 16.3394 7.7863C16.6746 7.56152 17.0114 7.33807 17.0876 7.28966C17.1639 7.24126 17.4113 7.08284 17.6376 6.93762C17.8639 6.79241 18.2152 6.57459 18.4184 6.45358C19.044 6.08095 19.9266 5.50809 20.1682 5.31782C20.4461 5.09903 20.7984 4.95681 21.0565 4.95909C21.2512 4.96086 20.6449 5.58554 19.1365 6.93762C18.8125 7.22805 18.093 7.88152 17.5377 8.38977C16.9824 8.89802 15.9855 9.80892 15.3224 10.414C14.6592 11.019 14.0107 11.6131 13.8809 11.7341C13.7512 11.8551 13.1183 12.4294 12.4745 13.0102C11.8306 13.5911 11.0194 14.3436 10.6718 14.6824L10.0398 15.2985L9.90345 17.4987C9.82841 18.7088 9.72937 20.0554 9.6833 20.491C9.63732 20.9266 9.61777 21.3326 9.63985 21.3931C9.70512 21.5716 10.1874 21.5191 10.5381 21.2955C10.717 21.1813 11.5172 20.4486 12.316 19.6673C13.1149 18.886 13.795 18.2468 13.8274 18.2468C13.9007 18.2468 14.8467 18.9193 15.6808 19.5645C16.0267 19.8321 16.449 20.15 16.6193 20.271C16.7895 20.392 17.2723 20.7493 17.692 21.065C19.8477 22.6866 20.0793 22.8232 20.6731 22.8232C21.1281 22.8232 21.3709 22.7012 21.6518 22.3313C21.917 21.9821 21.9027 22.0398 22.9041 17.2621C23.0633 16.5028 23.2162 15.8443 23.2441 15.7988C23.272 15.7533 23.3933 15.1666 23.5136 14.4951C23.6339 13.8237 23.8734 12.6208 24.0456 11.8221C24.2178 11.0234 24.47 9.82705 24.6061 9.16355C24.7422 8.49996 24.8742 7.92341 24.8994 7.88222C24.9246 7.84104 25.0444 7.27505 25.1655 6.6244C25.2865 5.97375 25.5241 4.7682 25.6934 3.94532C25.8626 3.12244 26.0006 2.31055 26 2.14114C25.9985 1.74474 25.7296 1.14866 25.4692 0.96472C25.1773 0.758515 24.2466 0.781573 23.6911 1.00872Z" fill="#08AF5A"/>
</svg>
