<svg width="20" height="23" viewBox="0 0 20 23" fill="none" xmlns="http://www.w3.org/2000/svg">
<path fill-rule="evenodd" clip-rule="evenodd" d="M10.6017 8.59496C10.6006 16.7518 10.6021 16.718 10.1838 17.4964C9.94941 17.9323 9.17461 18.6082 8.59582 18.8817C8.13382 19.0999 7.94491 19.134 7.1986 19.134C6.46772 19.134 6.25359 19.0971 5.79965 18.8923C5.17252 18.6094 4.59679 18.0655 4.2164 17.3968C3.98444 16.9889 3.93985 16.7921 3.90715 16.0321C3.87224 15.2194 3.89133 15.0963 4.13182 14.5807C4.73018 13.2981 6.35763 12.4309 7.66098 12.7002C8.00523 12.7713 8.13439 12.768 8.16652 12.6874C8.1903 12.6279 8.19797 11.7709 8.18358 10.7831L8.1575 8.987L7.05476 8.99373C5.06138 9.006 3.62063 9.59767 2.03584 11.055C1.13121 11.8867 0.564592 12.803 0.17729 14.0605C-0.0657933 14.8497 -0.0571631 16.9593 0.19244 17.7965C0.88199 20.1084 2.65021 21.8438 5.10319 22.6158C5.66866 22.7937 5.96736 22.8226 7.24654 22.8232C8.56782 22.8238 8.80735 22.7992 9.40408 22.6018C11.6998 21.8426 13.3774 20.2432 14.1381 18.0886L14.3879 17.3814L14.4181 12.8383C14.439 9.69877 14.48 8.29516 14.5506 8.29516C14.6069 8.29516 14.8979 8.43832 15.1974 8.61331C16.3395 9.28071 17.7463 9.70504 19.2089 9.82321L20 9.88713V8.03032V6.1735L19.7363 6.17018C18.6755 6.15699 17.2062 5.50158 16.2226 4.60274C15.1897 3.65888 14.7391 2.76852 14.4847 1.16916L14.4296 0.823242H12.5162H10.6027L10.6017 8.59496Z" fill="#18A0FB"/>
</svg>
