<svg width="27" height="16" viewBox="0 0 27 16" fill="none" xmlns="http://www.w3.org/2000/svg">
<path d="M25.5469 1.35449C25.4531 1.82324 25.0781 2.58887 24.4219 3.65137C23.7969 4.71387 23.2188 5.65137 22.6875 6.46387C22.1562 7.24512 21.875 7.65137 21.8438 7.68262C21.6562 7.96387 21.5625 8.16699 21.5625 8.29199C21.5625 8.41699 21.6562 8.63574 21.8438 8.94824C21.8438 8.94824 22.0469 9.16699 22.4531 9.60449C22.8906 10.042 23.3438 10.5107 23.8125 11.0107C24.2812 11.5107 24.7344 12.0732 25.1719 12.6982C25.6406 13.292 25.9375 13.7764 26.0625 14.1514C26.2812 14.9326 25.9688 15.3232 25.125 15.3232H22.3594C22.1094 15.3232 21.8594 15.2607 21.6094 15.1357C21.3906 15.0107 21.2031 14.8701 21.0469 14.7139C20.8906 14.5264 20.6094 14.2139 20.2031 13.7764C19.8281 13.3389 19.4688 12.9482 19.125 12.6045C17.875 11.417 16.9531 10.8232 16.3594 10.8232C15.9844 10.8232 15.7656 10.9326 15.7031 11.1514C15.6406 11.3701 15.6094 11.9951 15.6094 13.0264C15.6406 13.5264 15.6562 13.9326 15.6562 14.2451C15.6562 14.6201 15.5312 14.9014 15.2812 15.0889C15.0312 15.2451 14.4844 15.3232 13.6406 15.3232C12.1719 15.3232 10.6875 14.8857 9.1875 14.0107C7.6875 13.1357 6.375 11.8857 5.25 10.2607C4.1875 8.82324 3.29688 7.40137 2.57812 5.99512C1.89062 4.55762 1.4375 3.46387 1.21875 2.71387C1 1.96387 0.890625 1.43262 0.890625 1.12012C0.890625 0.588867 1.20312 0.323242 1.82812 0.323242H4.59375C4.9375 0.323242 5.1875 0.401367 5.34375 0.557617C5.53125 0.713867 5.6875 0.995117 5.8125 1.40137C6.46875 3.30762 7.26562 5.01074 8.20312 6.51074C9.17188 8.01074 9.90625 8.76074 10.4062 8.76074C10.5938 8.76074 10.7188 8.69824 10.7812 8.57324C10.875 8.41699 10.9219 8.13574 10.9219 7.72949V3.65137C10.8594 2.93262 10.6562 2.33887 10.3125 1.87012C9.96875 1.40137 9.79688 1.10449 9.79688 0.979492C9.79688 0.791992 9.85938 0.635742 9.98438 0.510742C10.1406 0.385742 10.3125 0.323242 10.5 0.323242H14.8594C15.3594 0.323242 15.6094 0.666992 15.6094 1.35449V6.79199C15.6094 7.32324 15.75 7.58887 16.0312 7.58887C16.3438 7.58887 16.7812 7.30762 17.3438 6.74512C17.9375 6.08887 18.5156 5.29199 19.0781 4.35449C19.6406 3.41699 20.0625 2.63574 20.3438 2.01074L20.7656 1.12012C20.9844 0.588867 21.375 0.323242 21.9375 0.323242H24.7031C25.4531 0.323242 25.7344 0.666992 25.5469 1.35449Z" fill="#18A0FB"/>
</svg>
