<svg width="27" height="19" viewBox="0 0 27 19" fill="none" xmlns="http://www.w3.org/2000/svg">
<path d="M25.7812 3.63574C25.9375 4.22949 26.0469 5.04199 26.1094 6.07324C26.2031 7.10449 26.2656 7.99512 26.2969 8.74512V9.82324C26.2969 12.6357 26.125 14.7139 25.7812 16.0576C25.4688 17.2139 24.7031 17.9639 23.4844 18.3076C22.8906 18.4639 21.7656 18.5889 20.1094 18.6826C18.4531 18.7451 16.9375 18.792 15.5625 18.8232H13.5C8.15625 18.8232 4.82812 18.6514 3.51562 18.3076C2.29688 17.9639 1.53125 17.2139 1.21875 16.0576C1.0625 15.4639 0.9375 14.6514 0.84375 13.6201C0.78125 12.5576 0.734375 11.667 0.703125 10.9482V9.82324C0.703125 7.04199 0.875 4.97949 1.21875 3.63574C1.375 3.07324 1.65625 2.58887 2.0625 2.18262C2.46875 1.77637 2.95312 1.49512 3.51562 1.33887C4.10938 1.18262 5.23438 1.07324 6.89062 1.01074C8.54688 0.916992 10.0625 0.854492 11.4375 0.823242H13.5C18.8438 0.823242 22.1719 0.995117 23.4844 1.33887C24.0469 1.49512 24.5312 1.77637 24.9375 2.18262C25.3438 2.58887 25.625 3.07324 25.7812 3.63574ZM10.875 13.667L17.5781 9.82324L10.875 6.02637V13.667Z" fill="#18A0FB"/>
</svg>
