<svg width="36" height="37" viewBox="0 0 36 37" fill="none" xmlns="http://www.w3.org/2000/svg">
<path d="M18 2.82324C14.8852 2.82584 11.898 4.06093 9.69078 6.25874C7.4836 8.45655 6.23582 11.4385 6.21997 14.5532C6.21997 19.2232 8.83997 23.1332 10.76 25.9832L11.11 26.5032C13.0202 29.2719 15.0695 31.942 17.25 34.5032L18.01 35.3932L18.77 34.5032C20.9501 31.9417 22.9994 29.2717 24.91 26.5032L25.26 25.9732C27.17 23.1232 29.79 19.2232 29.79 14.5532C29.7741 11.4367 28.525 8.45331 26.3156 6.25521C24.1063 4.05712 21.1165 2.8232 18 2.82324ZM18 19.8232C16.7025 19.8232 15.4342 19.4385 14.3554 18.7177C13.2766 17.9969 12.4358 16.9723 11.9393 15.7736C11.4428 14.575 11.3129 13.256 11.566 11.9834C11.8191 10.7109 12.4439 9.54205 13.3614 8.62462C14.2788 7.70719 15.4477 7.08241 16.7202 6.82929C17.9927 6.57617 19.3117 6.70608 20.5104 7.20259C21.7091 7.6991 22.7336 8.53992 23.4544 9.6187C24.1752 10.6975 24.56 11.9658 24.56 13.2632C24.56 15.0031 23.8688 16.6716 22.6386 17.9019C21.4084 19.1321 19.7398 19.8232 18 19.8232Z" fill="#08AF5A"/>
<path d="M18 16.9932C20.06 16.9932 21.73 15.3232 21.73 13.2632C21.73 11.2032 20.06 9.5332 18 9.5332C15.94 9.5332 14.27 11.2032 14.27 13.2632C14.27 15.3232 15.94 16.9932 18 16.9932Z" fill="#08AF5A"/>
</svg>
