<svg width="36" height="37" viewBox="0 0 36 37" fill="none" xmlns="http://www.w3.org/2000/svg">
<path d="M25 4.82324H11C10.4696 4.82324 9.96086 5.03396 9.58579 5.40903C9.21071 5.7841 9 6.29281 9 6.82324V30.8232C9 31.3537 9.21071 31.8624 9.58579 32.2375C9.96086 32.6125 10.4696 32.8232 11 32.8232H25C25.5304 32.8232 26.0391 32.6125 26.4142 32.2375C26.7893 31.8624 27 31.3537 27 30.8232V6.82324C27 6.29281 26.7893 5.7841 26.4142 5.40903C26.0391 5.03396 25.5304 4.82324 25 4.82324V4.82324ZM19 30.8232H17V28.8232H19V30.8232ZM11 26.8232V6.82324H25V26.8232H11Z" fill="#08AF5A"/>
</svg>
